<?xml version="1.0" standalone="no"?>
<!DOCTYPE svg PUBLIC "-//W3C//DTD SVG 20010904//EN"
 "http://www.w3.org/TR/2001/REC-SVG-20010904/DTD/svg10.dtd">
<svg version="1.0" xmlns="http://www.w3.org/2000/svg"
 width="1908.000000pt" height="861.000000pt" viewBox="0 0 1908.000000 861.000000"
 preserveAspectRatio="xMidYMid meet">
<metadata>
Created by potrace 1.15, written by Peter Selinger 2001-2017
</metadata>
<g transform="translate(0.000000,861.000000) scale(0.100000,-0.100000)"
fill="#000000" stroke="none">
<path d="M2 7420 c1 -85 6 -150 11 -150 5 0 7 9 4 20 -3 11 -1 20 4 20 13 0
11 -37 -2 -46 -8 -5 -6 -10 5 -16 22 -12 20 -28 -2 -23 -14 2 -18 -2 -16 -18
1 -12 3 -24 4 -27 1 -3 2 -9 1 -13 -12 -70 -10 -84 9 -83 10 1 19 -3 20 -9 0
-5 -8 -10 -18 -10 -10 0 -18 -9 -20 -22 -2 -15 2 -23 12 -23 21 0 31 -19 17
-33 -9 -9 -11 -8 -6 6 4 10 2 17 -4 17 -6 0 -11 -3 -12 -7 0 -5 -2 -18 -5 -31
-4 -23 -4 -23 110 -21 113 1 114 1 114 25 -1 14 -5 21 -11 17 -6 -3 -7 -1 -3
6 9 13 27 5 25 -12 -4 -34 1 -35 191 -35 143 0 189 2 183 11 -5 9 -3 9 8 1 22
-18 504 -20 493 -2 -6 10 -5 10 7 2 8 -7 39 -11 69 -10 53 1 55 2 60 31 l6 30
7 -32 c3 -18 11 -33 17 -33 7 0 8 6 0 19 -7 14 -7 22 2 27 6 4 8 3 5 -3 -4 -6
0 -19 8 -29 12 -16 16 -17 24 -5 8 12 12 12 25 2 10 -8 16 -9 16 -3 0 6 -8 16
-17 21 -10 6 -13 11 -6 11 6 0 18 -8 25 -18 12 -16 32 -19 193 -20 132 -1 181
2 187 11 6 9 8 9 8 0 0 -16 985 -19 995 -3 3 5 14 10 23 9 14 0 13 -2 -3 -9
-14 -5 -6 -8 29 -8 45 0 48 1 43 24 -2 13 0 21 4 18 5 -3 9 -12 9 -21 0 -10 6
-13 16 -9 8 3 12 2 9 -4 -3 -6 5 -10 19 -10 14 0 26 6 26 13 0 8 3 8 8 2 11
-17 153 -19 163 -3 7 10 9 10 9 1 0 -7 7 -13 15 -13 8 0 15 5 15 11 0 8 4 8
13 1 8 -7 96 -10 242 -10 164 1 224 4 208 11 -13 5 -23 14 -23 20 0 5 7 4 15
-3 9 -7 18 -10 21 -7 4 3 13 0 21 -8 16 -17 84 -17 95 -1 5 8 8 7 8 -1 0 -7 7
-13 16 -13 8 0 13 4 9 9 -3 6 5 15 17 21 21 10 22 10 5 -3 -10 -9 -15 -17 -10
-20 4 -3 91 -5 192 -6 133 -1 188 3 199 12 13 10 14 9 8 -1 -6 -10 24 -13 159
-10 126 1 168 5 172 15 3 7 10 10 15 7 6 -4 6 -9 -2 -14 -7 -4 5 -7 26 -7 22
0 42 6 46 11 5 7 8 7 8 -1 0 -7 5 -13 11 -13 5 0 7 6 3 13 -6 9 -5 9 7 0 9 -8
65 -11 171 -11 140 0 156 2 152 17 -5 13 -4 13 6 -1 14 -22 85 -26 77 -5 -3 8
1 14 8 14 7 0 11 -6 8 -13 -4 -10 112 -12 562 -13 439 0 564 3 558 12 -5 9 -3
9 8 0 9 -8 74 -11 203 -11 118 0 184 3 175 9 -9 5 -10 9 -2 9 6 0 15 -4 18
-10 10 -16 245 -13 245 3 0 8 3 9 8 1 10 -15 162 -16 162 -1 0 8 3 8 8 -1 7
-10 15 -10 36 -2 17 6 25 6 21 0 -4 -6 11 -10 37 -9 57 1 80 8 72 21 -4 7 -2
8 5 4 6 -4 9 -11 7 -15 -3 -4 67 -8 156 -10 118 -1 165 2 176 11 12 10 14 10
8 1 -5 -10 3 -13 28 -13 22 0 36 5 36 13 0 9 2 9 8 0 9 -15 369 -16 378 -2 3
5 11 9 17 9 7 0 6 -4 -3 -10 -9 -5 50 -9 163 -8 98 0 174 5 171 10 -3 4 -11 5
-17 1 -7 -4 -7 0 1 10 23 27 -2 45 -35 24 -6 -4 -15 -2 -19 4 -4 8 -3 9 4 5 8
-5 11 1 10 18 -1 15 -5 26 -9 26 -4 0 -9 9 -12 20 -9 34 9 22 28 -19 17 -39
30 -43 62 -19 17 14 5 37 -17 31 -12 -3 -17 -11 -13 -21 3 -10 -4 -4 -17 11
-19 24 -20 31 -9 38 23 14 43 10 57 -11 7 -11 20 -20 30 -20 15 -1 15 -2 2
-13 -8 -7 -21 -22 -28 -35 -11 -20 -10 -22 8 -22 11 0 21 5 21 10 1 6 2 15 3
20 1 14 20 14 24 1 2 -6 -2 -11 -8 -11 -7 0 -10 -7 -6 -15 3 -8 2 -14 -2 -14
-21 3 -65 -4 -49 -8 9 -2 15 -9 12 -14 -4 -5 94 -8 235 -8 132 0 238 4 235 9
-3 4 4 10 16 13 16 4 18 3 8 -9 -10 -12 13 -14 165 -13 127 0 176 4 176 12 0
8 3 8 9 -1 6 -9 32 -13 94 -11 48 1 87 4 87 7 0 3 -7 10 -16 16 -14 11 -14 13
3 26 12 9 14 10 7 1 -9 -10 -8 -17 6 -31 16 -16 36 -19 149 -18 121 0 131 1
131 18 0 10 4 21 9 24 5 4 7 -4 3 -16 -4 -17 -2 -20 12 -15 10 4 15 3 11 -3
-4 -7 24 -10 79 -9 79 1 84 2 81 21 -3 12 -1 17 3 14 4 -4 7 -13 7 -19 0 -15
37 -16 47 -2 5 6 8 6 8 -2 0 -8 13 -13 30 -13 17 0 30 5 30 13 0 9 2 9 8 -1 6
-9 39 -12 121 -11 107 2 113 3 128 26 9 13 18 21 21 19 3 -3 -1 -12 -8 -21 -7
-8 -11 -15 -9 -16 2 0 20 -3 39 -5 26 -4 31 -2 20 6 -9 6 -10 10 -3 10 6 0 14
-4 17 -9 3 -5 170 -9 373 -10 335 0 367 1 380 17 14 16 14 16 9 0 -6 -19 13
-21 26 -3 5 6 8 5 8 -2 0 -10 33 -13 133 -13 93 0 137 4 146 13 11 9 12 9 7 0
-5 -10 9 -13 58 -12 36 1 64 4 62 8 -3 4 10 8 29 9 18 2 36 -1 39 -6 9 -15
128 -15 138 0 6 11 10 10 17 -2 8 -12 13 -11 33 5 13 11 26 25 31 32 4 7 14
10 21 7 7 -3 16 2 19 10 8 22 27 20 27 -1 0 -14 -2 -15 -9 -5 -7 11 -10 10
-15 -3 -3 -9 -12 -15 -19 -12 -6 2 -17 -3 -24 -12 -20 -25 -15 -36 7 -16 17
15 22 16 37 4 9 -8 14 -9 10 -2 -10 16 9 26 34 18 12 -4 18 -12 15 -21 -3 -8
-1 -14 4 -14 6 0 10 7 10 15 0 8 5 15 10 15 6 0 10 -8 10 -17 0 -15 2 -14 15
3 8 10 15 15 15 10 0 -5 6 -5 13 0 7 5 5 1 -6 -8 -17 -16 -16 -17 38 -15 44 2
54 5 50 17 -4 12 -2 12 8 -1 10 -14 42 -16 226 -18 158 -1 218 2 229 12 13 10
14 9 8 -1 -6 -11 25 -13 164 -10 128 2 174 6 177 15 3 7 10 10 15 7 6 -4 6 -9
-2 -14 -7 -4 2 -7 21 -7 19 1 37 6 41 12 5 6 8 6 8 -2 0 -7 5 -13 11 -13 5 0
7 6 3 13 -6 9 -5 9 7 0 9 -7 66 -11 171 -11 141 0 156 2 152 16 -5 14 -4 14 6
0 13 -21 75 -26 67 -5 -3 7 3 13 13 13 10 0 16 -6 13 -12 -3 -10 124 -13 562
-13 439 0 564 3 558 12 -5 9 -4 9 8 0 20 -16 392 -16 383 0 -5 8 -2 8 7 0 9
-9 50 -13 131 -13 88 0 118 3 118 13 0 8 3 9 8 1 10 -15 155 -15 164 0 6 8 8
8 8 -1 0 -9 7 -10 26 -3 14 6 23 6 20 2 -9 -15 445 -14 463 1 12 9 13 9 7 0
-5 -10 2 -13 28 -13 19 0 37 6 39 13 4 9 7 9 14 0 10 -15 370 -16 379 -2 3 5
11 9 17 9 7 0 6 -4 -3 -10 -9 -6 51 -9 168 -8 105 0 179 4 176 9 -3 5 -11 6
-17 2 -7 -4 -7 0 1 10 8 9 11 20 8 26 -7 11 -32 9 -43 -4 -4 -4 -3 -5 4 -1 6
3 14 2 17 -3 8 -13 -14 -26 -23 -14 -3 5 -15 15 -26 22 -19 11 -19 12 3 6 15
-5 22 -2 22 8 0 9 -5 17 -12 19 -8 3 -6 7 4 11 11 4 19 0 23 -13 6 -19 25 -18
52 2 17 14 5 37 -17 31 -12 -3 -17 -11 -13 -21 3 -10 -4 -4 -17 11 -19 24 -20
31 -9 38 22 14 36 11 61 -14 23 -23 23 -24 6 -55 -15 -27 -15 -32 -3 -32 8 0
16 5 16 10 1 6 2 15 3 20 1 14 20 14 24 1 2 -6 -2 -11 -8 -11 -7 0 -10 -7 -6
-15 3 -8 2 -14 -2 -14 -4 1 -18 0 -32 -1 -18 -2 -20 -4 -7 -7 9 -2 15 -9 12
-14 -4 -5 90 -8 229 -8 130 1 234 5 231 9 -3 4 4 10 16 13 16 4 18 3 8 -9 -10
-12 13 -14 165 -13 127 0 176 4 176 12 0 8 3 8 9 -1 6 -9 32 -13 94 -11 48 1
87 4 87 7 0 3 -7 10 -16 16 -14 11 -14 13 3 26 12 9 14 10 6 1 -8 -10 -7 -17
7 -31 16 -16 36 -19 149 -18 121 0 131 1 131 18 0 10 4 21 9 24 5 4 7 -4 3
-16 -4 -17 -2 -20 12 -15 10 4 15 3 11 -3 -4 -6 25 -10 79 -9 79 1 84 2 81 21
-3 12 -1 17 3 14 4 -4 7 -13 7 -19 0 -15 37 -16 47 -2 5 6 8 6 8 -2 0 -7 11
-13 25 -13 14 0 25 6 25 13 0 9 2 9 8 -1 6 -9 39 -12 116 -11 101 1 108 2 123
25 9 14 18 22 21 20 3 -3 -1 -12 -7 -20 -14 -17 -7 -22 39 -24 28 -1 31 0 15
7 -16 8 -17 10 -3 10 9 1 19 -3 23 -8 3 -5 107 -9 240 -9 l235 0 -1 204 c-1
120 -5 201 -11 198 -8 -5 -1 45 8 55 2 2 -2 11 -9 19 -6 9 -7 13 -1 9 7 -4 11
17 12 63 l1 70 -1389 0 c-966 0 -1390 -3 -1390 -11 0 -6 -5 -7 -12 -2 -18 10
-38 13 -38 4 0 -4 9 -17 20 -28 19 -21 19 -22 0 -20 -10 1 -17 4 -15 7 7 11
-25 50 -41 50 -8 0 -25 -12 -38 -27 -17 -19 -23 -22 -23 -10 0 9 4 14 8 12 4
-3 9 1 12 8 3 8 -3 13 -14 13 -11 0 -19 -6 -19 -14 0 -8 -6 -12 -12 -9 -7 2
-12 10 -10 16 1 8 -17 11 -57 9 -38 -1 -57 -6 -53 -13 3 -5 -1 -5 -9 2 -24 20
-104 14 -117 -8 -10 -15 -9 -19 0 -19 9 0 8 -3 -2 -10 -19 -12 -47 -3 -74 22
l-21 20 23 -11 c17 -9 22 -9 23 1 0 7 4 3 9 -9 5 -13 14 -23 20 -23 6 0 9 4 5
9 -3 5 -1 12 5 16 5 3 10 10 10 15 0 4 -360 8 -800 9 -511 0 -800 -3 -800 -9
0 -6 -5 -10 -11 -10 -5 0 -7 5 -4 10 3 6 2 10 -2 10 -5 0 -14 -9 -21 -21 -11
-16 -16 -18 -27 -9 -8 7 -20 10 -27 8 -7 -3 -22 -2 -33 2 -11 4 -28 3 -38 -2
-11 -5 -16 -5 -15 1 2 5 -1 9 -7 9 -5 0 -9 -4 -7 -10 1 -5 -2 -7 -8 -3 -6 3
-8 11 -5 16 4 5 -12 9 -34 9 -35 0 -39 -2 -36 -21 3 -12 1 -18 -3 -15 -4 4 -7
13 -7 19 0 9 -65 13 -240 14 -132 2 -247 0 -255 -3 -12 -4 -8 -11 15 -30 20
-17 23 -22 10 -17 -23 8 -45 34 -39 45 3 5 -11 8 -31 8 -26 0 -42 -7 -58 -25
-16 -18 -28 -23 -44 -19 -13 4 -23 10 -23 15 0 14 28 11 33 -3 3 -7 4 -3 4 8
l-1 22 -821 0 c-541 0 -824 -4 -832 -10 -9 -7 -13 -7 -13 1 0 15 -47 14 -53
-1 -4 -10 -6 -10 -6 -1 -1 17 -3681 19 -3681 2 0 -6 -5 -7 -12 -2 -18 10 -38
13 -38 4 0 -4 9 -17 20 -28 19 -21 19 -22 0 -20 -10 1 -17 4 -15 7 8 13 -27
50 -46 50 -11 0 -30 -12 -43 -27 -17 -19 -23 -22 -23 -10 0 9 4 14 8 12 4 -3
9 1 12 8 3 8 -3 13 -14 13 -11 0 -19 -6 -19 -14 0 -7 -5 -10 -10 -7 -6 4 -8
11 -4 16 3 6 -17 9 -50 8 -32 -1 -53 -6 -49 -12 3 -5 -4 -4 -15 2 -32 17 -97
11 -111 -11 -9 -14 -8 -18 1 -18 9 0 8 -3 -2 -10 -19 -12 -47 -3 -74 22 l-21
20 23 -11 c17 -9 22 -9 23 1 0 7 4 3 9 -9 5 -13 14 -23 20 -23 6 0 9 4 5 9 -3
5 -1 12 5 16 5 3 10 10 10 15 0 4 -358 8 -795 9 -509 0 -795 -3 -795 -9 0 -6
-5 -10 -11 -10 -5 0 -7 5 -4 10 3 6 2 10 -2 10 -5 0 -14 -9 -21 -21 -11 -16
-16 -18 -28 -9 -7 7 -23 10 -35 7 -12 -3 -31 -2 -44 3 -15 6 -27 4 -34 -3 -9
-9 -12 -9 -9 0 2 6 -1 11 -7 11 -5 0 -9 -4 -7 -10 1 -5 -2 -7 -8 -3 -6 3 -8
11 -5 16 4 5 -12 9 -34 9 -35 0 -39 -2 -36 -21 3 -12 1 -18 -3 -15 -4 4 -7 13
-7 19 0 9 -66 13 -245 14 -135 1 -252 0 -260 -3 -12 -4 -8 -11 15 -30 20 -17
23 -22 10 -17 -23 8 -45 34 -39 45 3 5 -9 8 -26 8 -21 0 -38 -8 -53 -26 -21
-24 -57 -26 -57 -3 0 14 18 11 23 -3 3 -7 4 -3 4 8 l-1 22 -778 0 c-541 0
-776 -3 -771 -11 4 -6 1 -7 -7 -2 -10 6 -12 4 -7 -9 4 -11 3 -15 -4 -11 -6 4
-8 13 -5 20 4 11 -104 14 -630 15 -508 0 -634 -2 -634 -12 0 -10 -2 -10 -8 -1
-6 10 -80 12 -310 11 -166 0 -302 -5 -302 -9 0 -5 -7 -9 -15 -9 -8 0 -15 -8
-16 -17 0 -11 -3 -13 -6 -5 -2 6 -10 9 -15 6 -7 -5 -8 -2 -4 5 5 7 18 16 30
21 18 8 17 9 -11 9 -30 1 -38 -7 -34 -31 0 -5 -4 -8 -9 -8 -6 0 -10 8 -8 17 3
15 -5 18 -47 18 -33 0 -54 -5 -63 -15 -11 -13 -11 -13 -7 1 5 13 -2 16 -47 15
-29 -1 -59 -5 -67 -10 -11 -7 -12 -6 -6 5 7 11 5 11 -10 -1 -11 -9 -16 -10
-11 -2 4 7 1 12 -9 12 -13 0 -14 -4 -5 -20 6 -11 15 -18 20 -15 6 3 7 -1 3
-10 -5 -14 -10 -11 -25 14 -23 35 -38 40 -38 12 0 -10 -7 -24 -15 -31 -9 -8
-15 -8 -15 -2 0 6 5 12 12 14 6 2 9 12 5 21 -9 23 -97 25 -97 2 0 -8 9 -15 20
-15 11 0 20 -4 20 -10 0 -6 -9 -6 -22 -1 -28 10 -63 -1 -76 -25 -8 -14 -10
-13 -14 10 -5 23 -3 24 10 14 13 -11 15 -10 10 3 -5 12 -1 15 18 11 17 -3 24
0 24 12 0 14 -52 16 -530 16 l-529 0 1 -150z m1207 91 c11 -7 10 -12 -8 -22
-29 -19 -26 -36 6 -42 29 -5 43 6 43 33 -1 12 -3 11 -11 -2 -5 -10 -15 -18
-21 -18 -6 0 -3 9 7 20 10 11 21 17 26 15 4 -3 10 -1 14 5 3 5 12 10 18 10 7
0 4 -7 -5 -14 -18 -13 -25 -32 -9 -22 5 4 12 0 14 -6 4 -8 6 -7 6 4 1 9 5 20
11 23 6 4 7 -2 1 -17 -5 -13 -16 -22 -25 -22 -13 2 -14 -1 -5 -12 13 -16 39
-2 39 22 0 16 16 19 25 4 4 -6 11 -8 16 -4 5 3 17 0 26 -8 15 -11 16 -11 10 5
-8 22 -5 22 17 -5 14 -16 15 -20 3 -15 -16 6 -31 -18 -21 -34 7 -12 44 -12 44
0 0 5 -9 7 -20 4 -11 -3 -20 0 -20 6 0 6 13 10 29 9 16 -1 27 -6 25 -10 -3 -4
0 -17 6 -28 9 -16 15 -18 31 -10 16 9 17 14 8 33 -7 12 -8 19 -4 14 5 -4 17 1
27 10 18 16 18 16 12 0 -3 -9 -10 -17 -15 -17 -4 0 -6 -7 -2 -16 3 -9 0 -20
-8 -24 -7 -5 -10 -12 -6 -16 3 -4 13 -1 22 6 13 11 14 10 9 -3 -10 -27 -47
-25 -71 3 -12 14 -22 19 -23 12 0 -19 53 -69 58 -54 5 15 32 16 32 1 0 -5 -6
-7 -12 -3 -9 5 -9 3 1 -9 14 -18 36 -13 25 5 -4 6 -3 9 2 6 5 -3 18 -2 29 3
17 6 16 8 -10 9 -16 1 -25 4 -18 6 7 3 11 17 9 32 -2 15 -1 19 1 10 2 -10 8
-18 13 -18 5 0 11 8 14 18 2 9 4 4 3 -13 -1 -19 3 -29 10 -28 7 2 10 -4 7 -12
-4 -8 -13 -15 -21 -15 -23 0 -66 -37 -51 -43 10 -4 10 -6 0 -6 -7 -1 -17 9
-22 22 -5 12 -9 16 -9 10 -1 -15 -37 -18 -45 -4 -4 5 3 7 14 4 11 -3 20 0 20
6 0 6 -8 11 -19 11 -10 0 -21 9 -24 20 -3 11 -11 19 -19 17 -7 -2 -10 -2 -5 0
13 8 7 33 -7 33 -35 0 -28 -46 7 -53 12 -2 4 -4 -18 -4 -46 0 -66 12 -58 34 6
16 -18 38 -27 24 -3 -5 -15 -11 -26 -15 -17 -5 -23 -2 -27 15 -4 14 -10 18
-18 13 -10 -6 -10 -9 -1 -12 7 -2 12 -12 12 -23 0 -17 3 -18 21 -9 11 7 24 9
27 5 3 -3 -4 -8 -17 -12 -15 -4 -20 -11 -16 -22 3 -8 3 -12 -1 -9 -9 9 -33
-15 -26 -26 3 -5 0 -6 -6 -2 -7 4 -12 1 -13 -6 0 -10 -2 -10 -6 0 -2 6 -13 12
-23 12 -10 0 -20 9 -23 20 -4 15 0 20 13 20 28 0 35 20 11 27 -16 4 -20 11
-16 24 4 11 2 19 -5 19 -6 0 -8 -4 -5 -10 3 -6 -1 -7 -9 -4 -14 5 -14 8 0 29
18 28 11 46 -14 39 -9 -2 1 4 23 15 22 11 34 20 28 20 -7 1 -13 6 -13 11 0 12
10 13 29 1z m-229 -30 c0 -5 15 -8 33 -7 19 2 41 -2 50 -9 15 -11 14 -13 -11
-24 -24 -10 -25 -10 -9 3 22 17 11 25 -21 17 -27 -7 -30 -21 -8 -33 9 -5 13
-15 9 -21 -4 -8 -1 -7 9 1 10 8 19 9 22 4 3 -6 -1 -13 -10 -16 -25 -10 -34 -7
-34 11 0 21 -7 14 -12 -12 -1 -11 -7 -24 -13 -28 -5 -4 6 -6 25 -5 19 2 33 7
30 12 -3 5 5 13 18 17 13 5 20 14 17 19 -10 16 14 40 41 40 33 0 34 -11 5 -40
l-25 -25 17 28 c15 22 15 27 3 27 -18 0 -29 -17 -34 -48 -2 -17 1 -21 9 -16 7
4 9 3 5 -4 -12 -19 12 -23 26 -3 13 18 14 18 48 0 19 -11 27 -19 18 -19 -9 0
-25 -3 -35 -6 -15 -5 -15 -4 -3 5 18 12 9 24 -14 15 -21 -8 -21 -23 2 -32 21
-9 26 -29 7 -29 -8 0 -17 9 -21 19 -3 10 -10 16 -15 13 -5 -4 -9 0 -9 7 0 10
-3 9 -11 -2 -10 -13 -10 -13 -6 0 6 21 -15 40 -29 26 -6 -6 -9 -17 -8 -24 1
-7 0 -8 -3 -2 -2 5 -18 10 -34 10 -25 0 -28 -2 -17 -14 10 -11 16 -11 28 -2
13 10 13 9 0 -8 -14 -18 -13 -19 5 -13 18 7 19 6 3 -6 -10 -8 -16 -16 -13 -19
3 -2 -1 -5 -8 -5 -6 0 -21 -4 -32 -8 -19 -7 -19 -7 -2 7 18 13 17 14 -2 14
-12 0 -21 -4 -21 -8 0 -4 -7 -8 -16 -8 -12 0 -14 -3 -6 -13 11 -13 50 -16 69
-4 16 10 24 -6 12 -23 -5 -8 -9 -10 -9 -5 0 6 -11 12 -25 13 -33 2 -32 -2 8
-28 17 -12 24 -19 15 -16 -10 3 -18 1 -18 -4 0 -6 -7 -10 -16 -10 -8 0 -13 -4
-10 -8 2 -4 -6 -9 -19 -10 -13 -1 -27 3 -30 8 -3 5 1 7 9 4 9 -3 27 4 42 15
29 23 25 28 -9 9 -20 -10 -21 -10 -9 5 8 9 10 22 6 28 -5 9 -11 7 -21 -6 -7
-11 -13 -13 -13 -6 0 9 -5 8 -16 -3 -8 -9 -18 -16 -21 -16 -4 0 -3 3 0 6 3 4
2 15 -4 25 -6 13 -6 19 1 19 5 0 10 -4 10 -10 0 -5 7 -7 15 -3 17 6 14 29 -3
26 -6 -1 -9 9 -7 22 3 28 1 29 -27 14 -16 -9 -18 -13 -7 -20 7 -4 10 -11 6
-16 -5 -4 -12 -1 -16 6 -6 8 -17 11 -32 6 -16 -4 -20 -3 -11 3 16 11 16 10 3
45 -6 16 -7 26 -2 22 5 -3 12 3 15 12 3 10 4 5 2 -11 -4 -34 2 -56 16 -56 5 0
6 5 3 10 -4 6 -3 10 2 9 12 -3 47 13 55 25 4 6 6 -4 4 -22 -2 -18 0 -35 5 -38
11 -7 51 15 45 25 -3 4 9 5 27 3 29 -5 31 -4 18 12 -8 10 -22 15 -31 13 -9 -2
-28 5 -41 16 l-24 19 25 -14 c16 -10 32 -12 45 -7 11 4 14 8 7 8 -10 1 -9 5 3
17 9 9 15 26 13 38 -4 26 -38 35 -38 9 0 -14 -2 -15 -9 -4 -6 9 -4 19 5 28 8
8 14 21 14 29 0 8 5 14 10 14 6 0 10 -4 10 -9z m9293 -154 c4 3 7 -2 7 -12 0
-17 -1 -17 -21 1 -22 19 -22 19 -15 -6 3 -14 3 -19 0 -12 -3 6 -10 10 -15 7
-5 -3 -3 -14 3 -25 10 -16 13 -16 23 -4 13 19 45 8 45 -15 0 -14 -2 -14 -10
-1 -9 13 -10 13 -10 0 0 -13 -1 -13 -10 0 -5 8 -10 10 -10 4 0 -13 38 -54 51
-54 6 0 7 5 4 10 -3 6 -1 10 4 10 14 0 14 -13 0 -27 -7 -7 -3 -9 15 -6 14 3
23 9 20 14 -3 5 0 17 5 28 8 15 7 20 -6 25 -9 4 -18 4 -21 1 -3 -3 0 -5 6 -5
7 0 12 -4 12 -9 0 -6 -8 -9 -18 -8 -12 1 -18 8 -17 21 1 14 8 20 21 19 10 -1
13 0 7 3 -18 8 -16 24 1 24 8 0 16 -10 18 -22 2 -12 9 -23 17 -26 8 -3 11 0 7
7 -4 6 -2 11 3 11 6 0 11 -6 11 -12 0 -8 7 -5 15 6 8 11 15 15 15 10 0 -6 -3
-14 -7 -18 -11 -11 -14 -46 -3 -46 6 0 10 5 10 11 0 5 5 7 10 4 6 -3 10 -13
10 -21 0 -8 -4 -12 -10 -9 -5 3 -10 1 -10 -5 0 -6 -4 -9 -9 -5 -5 3 -16 -2
-24 -10 -9 -8 -21 -15 -27 -15 -6 0 -9 -4 -6 -8 2 -4 -5 -9 -17 -9 -17 -2 -19
0 -7 7 8 5 11 10 7 10 -4 0 -20 -8 -35 -17 -21 -14 -24 -14 -15 -2 13 16 2 43
-19 45 -7 0 -22 2 -32 2 -15 2 -17 5 -8 14 8 8 15 8 27 -2 8 -7 15 -9 15 -6 0
9 -32 42 -37 39 -11 -9 -24 0 -21 15 2 9 -5 21 -16 27 -11 6 -21 17 -23 25 -3
12 -1 11 9 -2 13 -15 16 -15 33 8 12 17 21 21 30 14 6 -5 15 -7 18 -3z m8331
0 c3 3 6 -1 6 -11 0 -15 -2 -15 -26 1 -26 17 -27 17 -20 -7 5 -17 4 -21 -2
-11 -5 7 -12 9 -15 4 -3 -4 1 -17 9 -28 8 -10 14 -14 14 -8 0 14 26 24 45 17
8 -4 15 -14 15 -23 0 -14 -2 -14 -10 -1 -9 13 -10 13 -10 0 0 -13 -1 -13 -10
0 -5 8 -10 10 -10 4 0 -13 38 -54 51 -54 6 0 7 5 4 10 -3 6 -1 10 4 10 14 0
14 -13 0 -27 -9 -9 -7 -10 9 -6 12 3 19 9 16 14 -3 5 0 17 5 28 8 14 7 20 -4
24 -9 4 -12 1 -9 -7 3 -7 -1 -13 -9 -13 -8 0 -13 9 -11 21 1 12 6 20 12 19 6
-2 9 4 6 12 -4 8 -1 15 4 15 6 0 12 -10 14 -22 2 -13 11 -24 22 -26 11 -3 16
0 12 7 -4 6 -2 11 3 11 6 0 11 -6 11 -12 0 -8 7 -5 15 6 8 11 15 15 15 10 0
-6 -3 -14 -7 -18 -11 -11 -14 -46 -3 -46 6 0 10 5 10 11 0 5 5 7 10 4 6 -3 10
-13 10 -21 0 -8 -4 -12 -10 -9 -5 3 -10 1 -10 -5 0 -6 -4 -9 -9 -5 -5 3 -16
-2 -24 -10 -9 -8 -23 -15 -32 -15 -10 0 -14 -5 -9 -12 5 -10 4 -10 -6 -1 -10
9 -19 8 -39 -5 -21 -13 -24 -14 -14 -1 13 16 2 43 -19 45 -7 0 -24 2 -37 2
-20 2 -22 5 -13 14 10 10 17 10 32 0 11 -7 20 -10 20 -6 0 9 -28 34 -37 33
-23 -4 -34 3 -31 19 2 9 -5 21 -16 27 -11 6 -21 17 -23 25 -3 12 -1 11 9 -2
13 -15 16 -15 32 7 14 19 22 22 36 15 9 -5 20 -6 24 -3z"/>
<path d="M1 6080 c-1 -81 1 -89 16 -84 16 5 16 4 2 -5 -15 -9 -17 -35 -16
-200 1 -125 5 -189 12 -188 5 1 9 -4 7 -11 -1 -6 4 -11 10 -10 7 2 12 -4 10
-13 -2 -15 34 -17 394 -18 288 -1 393 2 388 10 -4 8 -1 8 13 1 24 -13 1856
-15 1848 -2 -3 5 -1 12 5 15 6 4 9 1 8 -7 -2 -10 15 -13 74 -13 42 0 74 3 72
7 -3 5 0 8 5 8 6 0 11 -4 11 -9 0 -6 45 -10 100 -10 70 0 100 3 100 11 0 9 3
9 12 0 13 -13 52 -17 44 -4 -2 4 0 14 5 22 8 12 9 11 7 -4 -3 -17 5 -20 65
-23 42 -2 66 0 63 6 -4 5 -2 12 3 16 5 3 14 -2 19 -11 8 -14 16 -15 55 -6 26
5 45 6 42 2 -7 -12 99 -8 107 4 5 7 8 7 8 -2 0 -9 23 -12 85 -11 65 1 85 4 85
15 0 8 4 14 10 14 5 0 7 -6 5 -12 -4 -10 24 -14 115 -16 78 -2 120 1 120 8 0
5 5 10 11 10 5 0 7 -4 4 -10 -4 -6 19 -9 60 -9 36 1 68 5 71 10 3 5 13 9 22 8
14 0 13 -2 -3 -8 -11 -4 62 -8 163 -9 100 0 180 3 177 8 -3 4 2 11 11 14 11 4
15 2 11 -7 -4 -11 9 -14 56 -16 56 -2 60 0 42 13 -11 8 -17 18 -12 22 4 4 7 2
7 -4 0 -7 7 -12 15 -12 8 0 15 -4 15 -10 0 -16 50 -12 56 5 7 17 34 21 34 4 0
-5 -4 -7 -10 -4 -5 3 -10 1 -10 -4 0 -14 66 -14 92 0 14 8 18 8 14 0 -5 -7 21
-10 83 -9 77 1 89 3 84 17 -3 13 -2 12 7 -1 8 -13 24 -18 53 -18 31 0 38 3 27
10 -9 6 -10 10 -3 10 6 0 15 -4 18 -10 9 -15 145 -13 145 3 0 9 2 9 8 1 9 -16
410 -18 428 -3 8 7 14 7 19 -1 10 -16 1694 -13 1714 3 10 8 13 8 8 0 -5 -8 8
-11 43 -11 29 -1 48 3 45 9 -4 5 -1 9 4 9 6 0 11 -4 11 -10 0 -15 147 -13 153
3 4 9 6 9 6 -1 1 -9 35 -12 141 -11 93 0 138 4 134 11 -4 6 1 6 14 -1 33 -18
65 -14 58 7 -6 16 -5 16 8 0 9 -13 27 -18 63 -18 57 0 75 13 63 45 -6 15 -5
22 5 22 7 0 10 -8 7 -20 -3 -12 -1 -18 5 -14 5 3 10 0 10 -8 0 -8 -4 -12 -8
-9 -4 2 -10 0 -14 -6 -8 -13 11 -13 37 1 14 8 18 8 14 0 -5 -7 39 -10 144 -10
85 0 152 5 156 10 4 6 10 6 17 0 7 -5 65 -9 129 -10 100 0 119 2 128 17 11 16
11 16 6 0 -5 -16 45 -17 721 -17 563 -1 730 2 742 12 10 8 13 8 8 0 -6 -9 235
-12 1023 -12 681 -1 1030 2 1030 9 0 5 5 10 11 10 5 0 7 -5 4 -10 -8 -14 134
-10 157 4 11 7 21 6 30 -1 15 -13 321 -16 313 -4 -3 5 2 12 11 15 11 4 15 2
11 -7 -4 -10 11 -13 56 -15 49 -2 59 0 49 10 -6 6 -12 16 -12 22 0 5 8 -1 19
-12 21 -25 59 -29 67 -7 7 17 34 21 34 4 0 -5 -4 -7 -10 -4 -5 3 -10 1 -10 -4
0 -14 76 -14 102 0 12 6 18 7 14 1 -4 -6 38 -10 119 -10 92 0 123 3 119 11 -5
8 -2 7 7 0 18 -18 169 -18 169 0 0 9 2 9 8 1 9 -16 410 -18 428 -3 8 7 14 7
19 -1 10 -16 1684 -13 1704 3 11 9 13 9 8 0 -5 -8 8 -12 48 -12 31 0 53 4 50
10 -4 5 -1 9 4 9 6 0 11 -4 11 -10 0 -15 147 -13 153 3 4 9 6 9 6 -1 1 -9 36
-12 146 -11 108 0 144 4 139 12 -5 8 -2 8 7 0 7 -7 24 -13 37 -13 19 0 23 4
18 18 -6 16 -5 16 8 0 9 -13 27 -18 63 -18 57 0 75 13 63 45 -6 15 -5 22 5 22
7 0 10 -8 7 -20 -3 -12 -1 -18 5 -14 5 3 10 0 10 -8 0 -8 -4 -12 -8 -9 -4 2
-10 0 -14 -6 -9 -14 18 -12 34 3 10 8 12 8 7 0 -8 -15 301 -17 310 -2 4 6 10
6 17 0 7 -5 67 -9 134 -10 105 0 124 2 133 17 11 16 11 16 6 0 -5 -16 44 -17
706 -17 551 -1 715 2 727 12 11 9 13 9 8 0 -6 -9 60 -12 287 -11 l294 1 1 145
c0 100 -3 150 -12 161 -9 12 -9 13 1 7 9 -6 12 19 12 109 0 64 -4 114 -8 111
-4 -2 -9 5 -9 17 -2 18 0 19 8 7 7 -11 9 -6 7 20 l-3 35 -90 2 c-60 1 -92 -2
-97 -10 -6 -9 -8 -9 -8 0 0 18 -357 17 -379 0 -11 -9 -13 -9 -8 0 11 17 -1004
18 -1015 0 -6 -8 -10 -9 -15 -1 -12 16 -91 13 -98 -4 -3 -7 -3 -17 0 -21 2 -4
-2 -8 -10 -8 -10 0 -11 5 -4 18 13 26 12 29 -17 29 -17 0 -23 -4 -18 -12 6
-10 4 -10 -8 0 -21 16 -379 15 -391 -2 -6 -8 -10 -7 -14 2 -2 6 -16 12 -29 12
-18 0 -23 -4 -18 -12 6 -10 5 -10 -7 -2 -8 7 -50 12 -97 12 -67 0 -82 -3 -78
-14 3 -8 1 -14 -4 -14 -6 0 -10 7 -10 15 0 13 -15 15 -85 13 -62 -1 -82 -5
-75 -13 7 -8 5 -12 -5 -12 -7 0 -13 5 -12 11 3 15 -2038 19 -2066 4 -13 -7
-17 -7 -13 0 4 7 -34 11 -114 11 -85 0 -120 -4 -120 -12 0 -8 -3 -8 -9 1 -9
15 -85 14 -115 -1 -13 -6 -16 -6 -12 2 9 14 0 14 -26 0 -13 -7 -18 -7 -14 -1
4 7 -52 10 -169 10 -129 0 -173 -3 -168 -12 4 -6 1 -6 -9 2 -21 17 -379 16
-390 -1 -6 -9 -8 -9 -8 0 0 10 -232 12 -1047 12 -577 0 -1042 -3 -1035 -8 11
-7 11 -9 -2 -14 -10 -4 -13 -13 -10 -24 4 -11 3 -14 -3 -7 -4 6 -15 14 -23 17
-12 4 -11 6 3 6 9 1 17 7 17 15 0 11 -14 14 -60 13 -49 -1 -59 -4 -55 -17 3
-10 1 -9 -9 3 -12 16 -26 18 -94 14 -44 -2 -85 -8 -92 -12 -8 -5 -11 -4 -6 3
9 15 -276 14 -286 -2 -6 -8 -8 -7 -8 1 0 18 -337 17 -359 0 -11 -9 -13 -9 -8
0 5 8 -122 11 -513 12 -406 0 -520 -2 -520 -12 0 -8 -3 -8 -8 -1 -11 16 -100
13 -107 -4 -3 -7 -3 -17 0 -21 2 -4 -2 -8 -10 -8 -10 0 -11 5 -4 18 14 26 12
29 -22 29 -21 0 -28 -4 -23 -12 6 -10 4 -10 -8 0 -21 16 -369 15 -381 -2 -6
-8 -10 -7 -14 2 -2 6 -18 12 -34 12 -22 0 -28 -4 -23 -12 6 -10 4 -10 -7 -2
-16 13 -179 17 -179 4 0 -5 6 -11 12 -13 8 -3 6 -6 -4 -6 -10 -1 -18 6 -18 14
0 12 -14 15 -75 13 -54 -1 -72 -5 -65 -13 7 -8 5 -12 -5 -12 -7 0 -13 5 -12
11 3 17 -2052 19 -2072 3 -11 -9 -13 -9 -8 0 6 9 -24 12 -118 11 -87 0 -125
-4 -125 -12 0 -7 -3 -7 -9 2 -9 14 -75 14 -105 -1 -13 -6 -16 -6 -12 2 4 6 4
11 1 11 -4 0 -16 -5 -27 -11 -13 -7 -18 -7 -14 -1 4 7 -51 10 -169 10 -126 0
-173 -4 -168 -12 4 -6 0 -6 -9 2 -21 17 -384 16 -392 -1 -3 -9 -5 -9 -5 0 -1
17 -1313 18 -1344 2 -14 -8 -18 -8 -12 0 9 15 -185 12 -204 -3 -11 -8 -13 -8
-7 1 5 10 -43 13 -224 13 -216 -1 -231 -2 -219 -17 13 -16 12 -16 -11 0 -29
20 -132 25 -112 5 7 -7 12 -17 12 -22 0 -6 -7 0 -16 12 -12 18 -25 22 -69 22
-57 0 -77 -12 -48 -29 17 -10 17 -10 1 -11 -16 0 -22 11 -19 32 0 4 -51 7
-115 6 l-115 -1 5 -26 c3 -14 3 -20 0 -13 -3 6 -10 10 -14 7 -5 -3 -7 4 -5 15
4 19 -1 20 -96 20 -70 0 -98 -3 -93 -11 4 -8 1 -8 -12 -2 -29 15 -117 17 -109
3 6 -9 2 -9 -13 -1 -29 16 -85 15 -76 -1 6 -10 4 -10 -7 0 -19 17 -59 15 -81
-5 -18 -16 -18 -16 -12 0 6 16 -30 17 -555 17 -435 0 -561 -3 -561 -13 0 -9
-2 -9 -8 -1 -10 16 -121 17 -140 1 -10 -8 -13 -8 -9 0 10 16 -514 17 -525 0
-6 -9 -8 -9 -8 1 0 8 -17 12 -49 12 l-49 0 -1 -90z"/>
<path d="M0 4554 c0 -8 6 -14 13 -14 9 0 9 -2 -1 -9 -10 -6 -13 -36 -11 -120
2 -95 5 -114 20 -122 10 -5 26 -6 36 -3 17 6 16 5 -1 -8 -13 -10 -17 -22 -14
-36 5 -18 3 -20 -12 -12 -10 5 -20 15 -23 22 -2 7 -4 -8 -3 -34 1 -26 6 -51
11 -55 4 -4 6 -1 3 8 -4 9 2 20 15 28 18 11 20 11 10 0 -7 -7 -13 -21 -13 -31
0 -10 -7 -18 -15 -18 -8 0 -15 -7 -15 -16 0 -8 4 -12 10 -9 6 3 10 1 10 -5 0
-6 6 -8 12 -4 10 5 10 4 1 -6 -10 -11 -10 -17 0 -29 11 -14 10 -14 -5 -2 -10
7 -15 17 -12 22 3 5 1 9 -4 9 -5 0 -9 -36 -10 -80 0 -76 1 -79 21 -76 12 2 21
9 19 16 -1 6 2 9 8 5 6 -3 8 -11 5 -16 -4 -5 4 -9 17 -9 21 0 24 4 22 31 -1
17 1 28 4 24 4 -3 7 -16 7 -28 0 -21 5 -22 85 -24 58 -2 80 0 70 7 -22 14 -3
12 20 -2 17 -11 22 -10 30 2 6 10 10 11 10 3 0 -10 26 -13 98 -12 55 0 89 4
78 8 -19 7 -19 8 2 13 13 4 20 2 19 -6 -1 -7 16 -11 46 -12 33 0 47 3 47 13 0
7 -6 13 -12 14 -7 0 -3 4 10 9 12 5 22 14 22 20 0 5 8 10 18 10 14 0 15 2 2
10 -13 8 -13 10 1 10 9 0 22 -7 29 -15 10 -12 10 -15 -3 -15 -8 0 -18 -6 -20
-12 -4 -10 -6 -10 -6 0 -1 10 -4 10 -16 -2 -19 -19 -19 -32 1 -40 24 -9 56 -7
50 3 -3 5 1 12 10 15 8 3 12 10 9 16 -3 5 0 7 8 4 8 -3 18 -1 22 5 8 13 25 14
25 2 0 -5 -8 -11 -17 -13 -15 -3 -14 -5 5 -10 12 -3 20 -2 16 3 -3 5 0 9 5 9
14 0 14 -13 -1 -28 -9 -9 -2 -12 35 -12 40 0 46 3 41 18 -5 16 -5 16 6 0 10
-16 48 -18 515 -17 278 0 505 4 505 9 0 4 -6 11 -12 14 -7 3 -2 4 12 3 14 -1
31 -8 38 -15 14 -12 36 -7 28 7 -3 4 2 8 10 8 8 0 13 -6 10 -13 -6 -16 505
-17 516 0 5 8 8 7 8 -1 0 -18 3087 -18 3109 0 12 9 13 9 7 0 -5 -10 5 -13 43
-13 27 0 53 5 57 12 5 8 2 9 -10 5 -10 -4 -15 -3 -11 4 4 5 16 7 27 3 13 -4
24 0 34 13 13 17 14 16 10 -9 l-4 -27 158 0 c119 -1 160 2 163 11 4 10 6 10 6
1 1 -10 28 -13 100 -13 95 0 100 1 104 23 l4 22 2 -23 c1 -21 5 -23 44 -21 23
1 48 7 55 12 8 6 12 6 12 -2 0 -7 46 -11 145 -10 90 0 143 4 140 9 -4 6 -1 10
4 10 6 0 11 -4 11 -10 0 -16 602 -13 619 3 10 8 12 8 7 0 -9 -17 372 -17 393
0 12 9 13 9 7 0 -6 -10 109 -13 553 -12 423 0 561 3 561 12 0 9 2 9 8 0 10
-16 344 -16 354 0 6 9 8 9 8 0 0 -17 131 -18 148 -1 9 9 12 9 12 0 0 -16 682
-15 692 1 6 9 8 9 8 0 0 -7 5 -13 11 -13 5 0 8 4 5 8 -3 5 1 9 9 9 8 0 12 -4
9 -8 -7 -12 119 -9 133 3 8 6 13 6 13 1 0 -15 351 -15 369 0 12 9 13 9 7 -1
-10 -17 972 -16 993 1 12 9 13 9 7 0 -5 -10 5 -13 39 -13 34 0 44 3 39 13 -6
9 -5 9 7 0 22 -18 2206 -18 2228 0 12 9 13 9 7 0 -5 -10 4 -13 38 -13 25 0 48
5 52 12 5 8 2 9 -10 5 -10 -4 -15 -3 -11 4 4 5 16 7 27 3 13 -4 24 0 34 13 13
17 14 16 10 -9 l-4 -27 158 0 c118 -1 160 2 163 11 4 10 6 10 6 1 1 -10 29
-13 105 -13 101 0 105 1 109 23 l4 22 2 -23 c1 -21 5 -23 39 -21 20 2 43 7 50
12 8 6 12 6 12 -2 0 -7 48 -11 152 -10 100 0 148 3 138 9 -13 8 -12 10 3 10 9
0 17 -4 17 -10 0 -16 592 -13 609 3 9 8 12 8 7 0 -9 -17 382 -17 403 0 12 9
13 9 7 0 -6 -10 109 -13 553 -12 423 0 561 3 561 12 0 9 2 9 8 0 10 -16 344
-16 354 0 6 9 8 9 8 0 0 -18 131 -18 148 -1 10 10 15 10 20 1 11 -17 673 -17
684 0 6 9 8 9 8 0 0 -7 5 -13 11 -13 5 0 8 4 5 8 -3 5 1 9 9 9 8 0 12 -4 10
-8 -8 -11 98 -9 112 3 8 6 13 7 13 1 0 -15 361 -15 379 0 10 8 13 8 8 1 -5 -8
15 -12 64 -13 l70 -1 -2 139 c-1 77 -5 139 -9 138 -5 -1 -8 3 -8 8 0 6 4 9 9
8 14 -4 11 15 -4 20 -9 4 -9 6 1 6 6 1 12 7 12 15 0 9 -8 13 -22 10 -23 -5
-23 -5 -1 5 20 9 21 17 22 140 l2 130 -1101 0 c-869 1 -1099 -2 -1094 -12 6
-9 5 -9 -7 0 -20 16 -1361 18 -1391 2 -14 -7 -18 -8 -14 -1 4 7 -99 11 -324
11 -260 1 -329 -2 -324 -12 6 -9 5 -9 -7 0 -18 15 -256 16 -265 2 -3 -5 -11
-9 -17 -9 -8 0 -7 4 2 9 9 6 -42 10 -132 10 -130 1 -147 0 -157 -16 -10 -15
-11 -16 -6 -1 4 15 -5 17 -80 17 -53 0 -82 -3 -79 -10 4 -5 10 -7 14 -5 4 3 8
-2 8 -10 0 -11 -5 -10 -21 4 -24 22 -101 28 -122 11 -10 -8 -14 -8 -14 -1 0 8
-106 11 -350 11 -219 0 -350 -3 -350 -9 0 -6 -8 -10 -17 -10 -13 0 -14 3 -6 8
7 4 -77 9 -188 10 -155 1 -198 -1 -192 -11 5 -9 4 -9 -8 0 -19 15 -1189 17
-1189 2 0 -6 -8 -5 -19 1 -11 5 -36 10 -56 10 -29 0 -36 -3 -31 -15 3 -8 1
-15 -4 -15 -6 0 -10 7 -10 15 0 13 -26 15 -179 14 -130 0 -181 -3 -185 -12 -3
-9 -5 -9 -5 0 -1 10 -283 13 -1316 13 -1035 -1 -1314 -3 -1309 -13 6 -9 5 -9
-7 0 -22 18 -1356 18 -1378 0 -11 -9 -13 -9 -8 0 6 9 -73 12 -328 12 -264 1
-334 -2 -329 -12 6 -9 5 -9 -7 0 -10 7 -94 11 -276 12 -238 0 -263 -1 -273
-17 -10 -15 -11 -15 -6 0 4 15 -6 17 -85 17 -53 0 -87 -4 -83 -10 3 -5 9 -7
13 -5 4 3 8 -2 8 -10 0 -11 -5 -10 -21 4 -24 22 -110 29 -132 11 -10 -8 -14
-8 -14 -1 0 8 -106 11 -345 11 -216 0 -345 -3 -345 -9 0 -6 -5 -10 -11 -10 -5
0 -8 4 -5 8 2 4 -88 9 -200 10 -160 1 -203 -1 -198 -11 6 -9 3 -8 -8 1 -21 17
-739 15 -750 -2 -5 -7 -8 -7 -8 1 0 9 -41 13 -165 12 -128 0 -164 -2 -158 -12
5 -9 4 -9 -8 0 -20 17 -340 16 -352 -1 -6 -8 -10 -8 -14 2 -2 6 -9 12 -14 12
-6 0 -5 -9 2 -21 7 -13 7 -19 1 -15 -6 3 -17 -3 -26 -15 l-15 -22 2 22 c1 11
7 21 14 21 7 0 10 7 7 15 -7 18 -74 21 -74 4 0 -8 -4 -8 -12 -1 -8 6 -78 11
-167 12 -136 1 -155 -1 -167 -17 -13 -17 -14 -17 -8 1 6 16 5 17 -16 6 -12 -7
-20 -7 -16 -2 4 7 -99 10 -309 11 -247 0 -314 -2 -309 -12 6 -9 3 -8 -8 1 -12
10 -65 12 -217 10 -185 -2 -218 -6 -191 -23 13 -8 13 -25 0 -25 -5 0 -10 7
-10 15 0 21 -20 19 -21 -2 0 -12 -2 -13 -6 -5 -3 7 1 19 8 28 11 13 -2 15
-109 13 -67 0 -122 -5 -122 -10 0 -5 5 -9 11 -9 5 0 7 -5 3 -11 -4 -8 -12 -3
-20 12 l-14 24 4 -28 c3 -15 1 -25 -5 -22 -5 4 -9 15 -9 26 0 19 -13 19 -615
18 -522 -1 -615 -3 -615 -15z"/>
</g>
</svg>
